<?xml version="1.0" encoding="iso-8859-1"?>
<!-- Generator: Adobe Illustrator 19.0.0, SVG Export Plug-In . SVG Version: 6.00 Build 0)  -->
<svg version="1.1" id="Capa_1" xmlns="http://www.w3.org/2000/svg" xmlns:xlink="http://www.w3.org/1999/xlink" x="0px" y="0px"
	 viewBox="0 0 512 512" style="enable-background:new 0 0 512 512;" xml:space="preserve">
<g>
	<g>
		<g>
			<path d="M494.933,443.733H349.867v-15.05c-0.007-7.152-2.802-14.019-7.791-19.144l156.966-86.331
				c2.875-1.576,4.593-4.661,4.417-7.935c-0.176-3.274-2.214-6.157-5.242-7.415l-92.967-38.733l88.317-136.491
				c1.921-2.977,1.805-6.831-0.294-9.686c-2.098-2.855-5.742-4.117-9.156-3.172l-142.783,39.666V8.533
				c-0.001-3.508-2.148-6.658-5.413-7.941c-3.265-1.283-6.982-0.437-9.371,2.132l-106.5,114.692L46.625,26.574
				c-3.184-1.669-7.073-1.163-9.724,1.266s-3.495,6.258-2.11,9.576l80.792,193.917l-99.175,7.625
				c-3.541,0.275-6.542,2.714-7.533,6.124s0.233,7.078,3.075,9.209l92.008,69.008L55.5,350.991
				c-2.846,1.623-4.511,4.733-4.283,8.002c0.227,3.268,2.307,6.118,5.35,7.332l112.036,44.815
				c-4.151,4.906-6.441,11.117-6.47,17.544v15.05H17.067C7.646,443.745,0.012,451.379,0,460.799v34.133
				c0.012,9.421,7.646,17.054,17.067,17.067h477.867c9.421-0.012,17.054-7.646,17.067-17.067v-34.133
				C511.988,451.379,504.354,443.745,494.933,443.733z M79.309,357.041l44.391-25.367c2.496-1.425,4.106-4.01,4.284-6.878
				s-1.1-5.633-3.4-7.355l-84.267-63.208l88.342-6.792c2.729-0.212,5.19-1.719,6.619-4.053s1.651-5.212,0.598-7.738l-76.25-183
				l158.283,82.908c3.408,1.784,7.589,1.067,10.208-1.75l96.15-103.542v140.4c0,2.667,1.247,5.18,3.37,6.794
				c2.123,1.614,4.878,2.143,7.447,1.431l131.942-36.65l-81.658,126.191c-1.372,2.124-1.732,4.747-0.982,7.162
				c0.75,2.415,2.532,4.373,4.866,5.346l86.042,35.85l-153.217,84.275h-23.408v-17.067c-0.012-9.421-7.646-17.054-17.067-17.067
				h-51.2c-9.421,0.012-17.054,7.646-17.067,17.067v17.067h-23.958L79.309,357.041z M322.25,418.133
				c5.824,0.007,10.543,4.726,10.55,10.55v15.05H179.2v-15.05c0.007-5.824,4.726-10.543,10.55-10.55H322.25z M230.4,401.066v-17.067
				h51.2v17.067H230.4z M17.067,494.933v-34.133h477.867l0.017,34.133H17.067z"/>
			<path d="M197.592,366.933c4.092,0.001,7.609-2.903,8.382-6.921c0.773-4.018-1.415-8.02-5.215-9.537l-3.983-1.592l19.983-11.417
				c2.495-1.425,4.106-4.01,4.284-6.878c0.178-2.868-1.1-5.633-3.4-7.355l-37.833-28.375l23.325-1.792
				c2.729-0.212,5.19-1.719,6.619-4.053s1.651-5.212,0.598-7.738l-48.967-117.524l67.425,35.317c3.408,1.787,7.59,1.07,10.208-1.75
				l34.05-36.667v77.375c0,2.667,1.247,5.18,3.369,6.794s4.878,2.143,7.447,1.431l66.875-18.575l-41.692,64.433
				c-1.372,2.124-1.732,4.747-0.982,7.162c0.75,2.415,2.532,4.373,4.865,5.346l44.517,18.55l-50.458,27.758
				c-4.128,2.269-5.636,7.455-3.367,11.584c2.269,4.128,7.455,5.636,11.584,3.367l65.992-36.292c2.875-1.576,4.593-4.66,4.417-7.935
				s-2.214-6.157-5.242-7.415l-51.442-21.434l48.35-74.733c1.921-2.977,1.805-6.831-0.294-9.686
				c-2.098-2.855-5.742-4.117-9.156-3.172l-77.717,21.592v-87.883c-0.001-3.508-2.148-6.658-5.413-7.941
				c-3.265-1.283-6.982-0.437-9.371,2.132l-44.4,47.817l-82.567-43.25c-3.184-1.669-7.073-1.163-9.723,1.266
				s-3.494,6.258-2.11,9.576l53.517,128.442l-34.167,2.625c-3.541,0.275-6.542,2.714-7.533,6.124
				c-0.992,3.41,0.233,7.078,3.075,9.209l45.575,34.175l-24.05,13.742c-2.846,1.623-4.511,4.733-4.283,8.002
				c0.227,3.268,2.307,6.118,5.35,7.332l20.392,8.158C195.432,366.728,196.507,366.935,197.592,366.933z"/>
		</g>
	</g>
</g>
<g>
</g>
<g>
</g>
<g>
</g>
<g>
</g>
<g>
</g>
<g>
</g>
<g>
</g>
<g>
</g>
<g>
</g>
<g>
</g>
<g>
</g>
<g>
</g>
<g>
</g>
<g>
</g>
<g>
</g>
</svg>
