<?xml version="1.0" encoding="UTF-8" standalone="no"?>
<!-- Generator: Adobe Illustrator 19.0.0, SVG Export Plug-In . SVG Version: 6.00 Build 0)  -->

<svg
   xmlns:dc="http://purl.org/dc/elements/1.1/"
   xmlns:cc="http://creativecommons.org/ns#"
   xmlns:rdf="http://www.w3.org/1999/02/22-rdf-syntax-ns#"
   xmlns:svg="http://www.w3.org/2000/svg"
   xmlns="http://www.w3.org/2000/svg"
   xmlns:sodipodi="http://sodipodi.sourceforge.net/DTD/sodipodi-0.dtd"
   xmlns:inkscape="http://www.inkscape.org/namespaces/inkscape"
   version="1.1"
   id="Layer_1"
   x="0px"
   y="0px"
   viewBox="0 0 512 512"
   style="enable-background:new 0 0 512 512;"
   xml:space="preserve"
   sodipodi:docname="info.svg"
   inkscape:version="0.92.0 r15299"><metadata
     id="metadata67"><rdf:RDF><cc:Work
         rdf:about=""><dc:format>image/svg+xml</dc:format><dc:type
           rdf:resource="http://purl.org/dc/dcmitype/StillImage" /></cc:Work></rdf:RDF></metadata><defs
     id="defs65" /><sodipodi:namedview
     pagecolor="#ffffff"
     bordercolor="#666666"
     borderopacity="1"
     objecttolerance="10"
     gridtolerance="10"
     guidetolerance="10"
     inkscape:pageopacity="0"
     inkscape:pageshadow="2"
     inkscape:window-width="830"
     inkscape:window-height="649"
     id="namedview63"
     showgrid="false"
     inkscape:zoom="0.4609375"
     inkscape:cx="246.17041"
     inkscape:cy="239.02748"
     inkscape:window-x="525"
     inkscape:window-y="18"
     inkscape:window-maximized="0"
     inkscape:current-layer="Layer_1" /><g
     id="g24"
     style="fill:#f5cb5c"
     transform="translate(0,32.542373)"><g
       id="g22"
       style="fill:#f5cb5c"><path
         d="m 256,172.877 c -19.683,0 -35.697,16.014 -35.697,35.697 V 386.04 c 0,19.683 16.014,35.697 35.697,35.697 19.683,0 35.697,-16.014 35.697,-35.697 V 208.574 c 0,-19.684 -16.014,-35.697 -35.697,-35.697 z m 15.299,213.163 c 0,8.436 -6.863,15.299 -15.299,15.299 -8.436,0 -15.299,-6.863 -15.299,-15.299 V 208.574 c 0,-8.436 6.863,-15.299 15.299,-15.299 8.436,0 15.299,6.863 15.299,15.299 z"
         id="path20"
         style="fill:#f5cb5c"
         inkscape:connector-curvature="0" /></g></g><g
     id="g30"
     style="fill:#f5cb5c"
     transform="translate(0,32.542373)"><g
       id="g28"
       style="fill:#f5cb5c"><path
         d="M 281.235,100.707 C 274.583,94.069 265.384,90.263 256,90.263 c -9.385,0 -18.584,3.806 -25.246,10.453 -6.642,6.644 -10.451,15.844 -10.451,25.244 0,9.384 3.806,18.583 10.46,25.251 6.652,6.639 15.851,10.446 25.237,10.446 9.385,0 18.584,-3.807 25.251,-10.461 6.639,-6.652 10.446,-15.851 10.446,-25.236 0,-9.4 -3.809,-18.601 -10.462,-25.253 z m -14.408,36.066 c -2.858,2.85 -6.804,4.486 -10.827,4.486 -4.026,0 -7.972,-1.636 -10.813,-4.47 -2.85,-2.858 -4.486,-6.805 -4.486,-10.828 0,-4.032 1.633,-7.976 4.469,-10.813 2.858,-2.85 6.805,-4.486 10.83,-4.486 4.024,0 7.971,1.636 10.819,4.478 2.847,2.847 4.479,6.79 4.479,10.82 10e-4,4.025 -1.635,7.971 -4.471,10.813 z"
         id="path26"
         style="fill:#f5cb5c"
         inkscape:connector-curvature="0" /></g></g><g
     id="g32" /><g
     id="g34" /><g
     id="g36" /><g
     id="g38" /><g
     id="g40" /><g
     id="g42" /><g
     id="g44" /><g
     id="g46" /><g
     id="g48" /><g
     id="g50" /><g
     id="g52" /><g
     id="g54" /><g
     id="g56" /><g
     id="g58" /><g
     id="g60" /></svg>