<?xml version="1.0" encoding="UTF-8" standalone="no"?>
<!-- Generator: Adobe Illustrator 19.0.0, SVG Export Plug-In . SVG Version: 6.00 Build 0)  -->

<svg
   xmlns:dc="http://purl.org/dc/elements/1.1/"
   xmlns:cc="http://creativecommons.org/ns#"
   xmlns:rdf="http://www.w3.org/1999/02/22-rdf-syntax-ns#"
   xmlns:svg="http://www.w3.org/2000/svg"
   xmlns="http://www.w3.org/2000/svg"
   xmlns:sodipodi="http://sodipodi.sourceforge.net/DTD/sodipodi-0.dtd"
   xmlns:inkscape="http://www.inkscape.org/namespaces/inkscape"
   version="1.1"
   id="Capa_1"
   x="0px"
   y="0px"
   viewBox="0 0 191.255 191.255"
   style="enable-background:new 0 0 191.255 191.255;"
   xml:space="preserve"
   sodipodi:docname="play.svg"
   inkscape:version="0.92.0 r15299"><metadata
     id="metadata39"><rdf:RDF><cc:Work
         rdf:about=""><dc:format>image/svg+xml</dc:format><dc:type
           rdf:resource="http://purl.org/dc/dcmitype/StillImage" /></cc:Work></rdf:RDF></metadata><defs
     id="defs37" /><sodipodi:namedview
     pagecolor="#ffffff"
     bordercolor="#666666"
     borderopacity="1"
     objecttolerance="10"
     gridtolerance="10"
     guidetolerance="10"
     inkscape:pageopacity="0"
     inkscape:pageshadow="2"
     inkscape:window-width="1366"
     inkscape:window-height="715"
     id="namedview35"
     showgrid="false"
     inkscape:zoom="1.2339546"
     inkscape:cx="-29.174492"
     inkscape:cy="95.627502"
     inkscape:window-x="-8"
     inkscape:window-y="-8"
     inkscape:window-maximized="1"
     inkscape:current-layer="Capa_1" /><path
     d="m 148.03833,89.851615 c -1.73395,-1.08079 -4.01383,-0.552102 -5.09401,1.181226 -1.08016,1.73333 -0.55148,4.013217 1.18123,5.09339 4.03232,2.514644 6.43914,6.852589 6.43914,11.604619 0,4.75203 -2.40682,9.08997 -6.43914,11.60463 l -60.643122,37.81221 c -4.278175,2.66747 -9.463992,2.79871 -13.871567,0.35307 -4.40819,-2.44625 -7.039917,-6.91667 -7.039917,-11.95769 V 69.918015 c 0,-5.041013 2.631727,-9.511438 7.039917,-11.957695 4.407575,-2.44564 9.593392,-2.314391 13.871567,0.353074 l 35.302502,22.011994 c 1.73333,1.079555 4.01321,0.551485 5.094,-1.181228 1.08018,-1.732714 0.55149,-4.013216 -1.18123,-5.093389 L 87.395208,52.039395 c -6.59072,-4.109341 -14.579566,-4.313298 -21.372394,-0.544092 -6.79098,3.76859 -10.84548,10.655695 -10.84548,18.422712 v 75.624445 c 0,7.767 4.0545,14.65411 10.846096,18.42271 3.234973,1.79495 6.740453,2.68903 10.238537,2.68903 3.845614,0 7.681981,-1.08079 11.133241,-3.23312 l 60.643122,-37.81223 c 6.21238,-3.87394 9.9212,-10.5571 9.9212,-17.87861 0,-7.32153 -3.70882,-14.004668 -9.9212,-17.878625 z"
     id="path2"
     style="fill:#f5cb5c;stroke-width:0.99999994"
     inkscape:connector-curvature="0" /><g
     id="g4" /><g
     id="g6" /><g
     id="g8" /><g
     id="g10" /><g
     id="g12" /><g
     id="g14" /><g
     id="g16" /><g
     id="g18" /><g
     id="g20" /><g
     id="g22" /><g
     id="g24" /><g
     id="g26" /><g
     id="g28" /><g
     id="g30" /><g
     id="g32" /></svg>